<?xml version="1.0" encoding="utf-8"?>
<svg 
    xmlns="http://www.w3.org/2000/svg" 
    xmlns:xlink="http://www.w3.org/1999/xlink">
    <symbol viewBox="0 0 24 24" id="ic_report_problem_24px">
        <path d="M0 0h24v24H0z" fill="none"/>
        <path d="M1 21h22L12 2 1 21zm12-3h-2v-2h2v2zm0-4h-2v-4h2v4z"/>
    </symbol>
    <symbol viewBox="0 0 24 24" id="ic_toc_24px">
        <path d="M3 9h14V7H3v2zm0 4h14v-2H3v2zm0 4h14v-2H3v2zm16 0h2v-2h-2v2zm0-10v2h2V7h-2zm0 6h2v-2h-2v2z" />
    </symbol>
    <symbol viewBox="0 0 24 24" id="mdi_angular_24px">
        <!-- https://materialdesignicons.com/icon/angular -->
        <path d="M12,2.5L20.84,5.65L19.5,17.35L12,21.5L4.5,17.35L3.16,5.65L12,2.5M12,4.6L6.47,17H8.53L9.64,14.22H14.34L15.45,17H17.5L12,4.6M13.62,12.5H10.39L12,8.63L13.62,12.5Z" />
    </symbol>
    <symbol viewBox="0 0 24 24" id="mdi_arrow_down_drop_circle_24px">
        <!-- https://materialdesignicons.com/icon/arrow-down-drop-circle -->
        <path d="M12,2A10,10 0 0,1 22,12A10,10 0 0,1 12,22A10,10 0 0,1 2,12A10,10 0 0,1 12,2M7,10L12,15L17,10H7Z" />
    </symbol>
    <symbol viewBox="0 0 24 24" id="mdi_arrow_left_drop_circle_24px">
        <!-- https://materialdesignicons.com/icon/arrow-left-drop-circle -->
        <path d="M22,12A10,10 0 0,1 12,22A10,10 0 0,1 2,12A10,10 0 0,1 12,2A10,10 0 0,1 22,12M14,7L9,12L14,17V7Z" />
    </symbol>
    <symbol viewBox="0 0 24 24" id="mdi_arrow_right_drop_circle_24px">
        <!-- https://materialdesignicons.com/icon/arrow-right-drop-circle -->
        <path d="M2,12A10,10 0 0,1 12,2A10,10 0 0,1 22,12A10,10 0 0,1 12,22A10,10 0 0,1 2,12M10,17L15,12L10,7V17Z" />
    </symbol>
    <symbol viewBox="0 0 24 24" id="mdi_amazon_24px">
        <!-- https://materialdesignicons.com/icon/amazon -->
        <path d="M15.93,17.09C15.75,17.25 15.5,17.26 15.3,17.15C14.41,16.41 14.25,16.07 13.76,15.36C12.29,16.86 11.25,17.31 9.34,17.31C7.09,17.31 5.33,15.92 5.33,13.14C5.33,10.96 6.5,9.5 8.19,8.76C9.65,8.12 11.68,8 13.23,7.83V7.5C13.23,6.84 13.28,6.09 12.9,5.54C12.58,5.05 11.95,4.84 11.4,4.84C10.38,4.84 9.47,5.37 9.25,6.45C9.2,6.69 9,6.93 8.78,6.94L6.18,6.66C5.96,6.61 5.72,6.44 5.78,6.1C6.38,2.95 9.23,2 11.78,2C13.08,2 14.78,2.35 15.81,3.33C17.11,4.55 17,6.18 17,7.95V12.12C17,13.37 17.5,13.93 18,14.6C18.17,14.85 18.21,15.14 18,15.31L15.94,17.09H15.93M13.23,10.56V10C11.29,10 9.24,10.39 9.24,12.67C9.24,13.83 9.85,14.62 10.87,14.62C11.63,14.62 12.3,14.15 12.73,13.4C13.25,12.47 13.23,11.6 13.23,10.56M20.16,19.54C18,21.14 14.82,22 12.1,22C8.29,22 4.85,20.59 2.25,18.24C2.05,18.06 2.23,17.81 2.5,17.95C5.28,19.58 8.75,20.56 12.33,20.56C14.74,20.56 17.4,20.06 19.84,19.03C20.21,18.87 20.5,19.27 20.16,19.54M21.07,18.5C20.79,18.14 19.22,18.33 18.5,18.42C18.31,18.44 18.28,18.26 18.47,18.12C19.71,17.24 21.76,17.5 22,17.79C22.24,18.09 21.93,20.14 20.76,21.11C20.58,21.27 20.41,21.18 20.5,21C20.76,20.33 21.35,18.86 21.07,18.5Z" />
    </symbol>
    <symbol viewBox="0 0 24 24" id="mdi_azure_24px">
        <!-- https://materialdesignicons.com/icon/azure -->
        <path d="M13.05,4.24L6.56,18.05L2,18L7.09,9.24L13.05,4.24M13.75,5.33L22,19.76H6.74L16.04,18.1L11.17,12.31L13.75,5.33Z" />
    </symbol>
    <symbol viewBox="0 0 24 24" id="mdi_cellphone_text_24px">
        <!-- https://materialdesignicons.com/icon/cellphone-text -->
        <path d="M17,19V5H7V19H17M17,1A2,2 0 0,1 19,3V21A2,2 0 0,1 17,23H7C5.89,23 5,22.1 5,21V3C5,1.89 5.89,1 7,1H17M9,7H15V9H9V7M9,11H13V13H9V11Z" />
    </symbol>
    <symbol viewBox="0 0 24 24" id="mdi_cloud_24px">
        <!-- https://materialdesignicons.com/icon/cloud -->
        <path d="M19.35,10.03C18.67,6.59 15.64,4 12,4C9.11,4 6.6,5.64 5.35,8.03C2.34,8.36 0,10.9 0,14A6,6 0 0,0 6,20H19A5,5 0 0,0 24,15C24,12.36 21.95,10.22 19.35,10.03Z" />
    </symbol>
    <symbol viewBox="0 0 24 24" id="mdi_cloud_download_24px">
        <!-- https://materialdesignicons.com/icon/cloud-download -->
        <path d="M17,13L12,18L7,13H10V9H14V13M19.35,10.03C18.67,6.59 15.64,4 12,4C9.11,4 6.6,5.64 5.35,8.03C2.34,8.36 0,10.9 0,14A6,6 0 0,0 6,20H19A5,5 0 0,0 24,15C24,12.36 21.95,10.22 19.35,10.03Z" />
    </symbol>
    <symbol viewBox="0 0 24 24" id="mdi_codepen_24px">
        <!-- https://materialdesignicons.com/icon/codepen -->
        <path d="M15.09,12L12,14.08V14.09L8.91,12L12,9.92V9.92L15.09,12M12,2C11.84,2 11.68,2.06 11.53,2.15L2.5,8.11C2.27,8.22 2.09,8.43 2,8.67V14.92C2,15.33 2,15.33 2.15,15.53L11.53,21.86C11.67,21.96 11.84,22 12,22C12.16,22 12.33,21.95 12.47,21.85L21.85,15.5C22,15.33 22,15.33 22,14.92V8.67C21.91,8.42 21.73,8.22 21.5,8.1L12.47,2.15C12.32,2.05 12.16,2 12,2M16.58,13L19.59,15.04L12.83,19.6V15.53L16.58,13M19.69,8.9L16.58,11L12.83,8.47V4.38L19.69,8.9M20.33,10.47V13.53L18.07,12L20.33,10.47M7.42,13L11.17,15.54V19.6L4.41,15.04L7.42,13M4.31,8.9L11.17,4.39V8.5L7.42,11L4.31,8.9M3.67,10.5L5.93,12L3.67,13.54V10.5Z" />
    </symbol>
    <symbol viewBox="0 0 120 120" id="mdi_death_star_variant_120px">
        <!-- https://materialdesignicons.com/icon/death-star-variant -->
        <path d="M2.05,13H21.94C21.88,13.69 21.74,14.36 21.54,15H14V17H17V19H15V21H12.5V22C12.33,22 12.17,22 12,22C6.82,22 2.55,18.05 2.05,13M21.94,11H2.05C2.55,5.95 6.82,2 12,2C13.62,2 15.15,2.39 16.5,3.08V5H18.5V7H20V9H21.54C21.74,9.64 21.88,10.31 21.94,11M12,6.75A2.5,2.5 0 0,0 9.5,4.25A2.5,2.5 0 0,0 7,6.75A2.5,2.5 0 0,0 9.5,9.25A2.5,2.5 0 0,0 12,6.75Z" />
    </symbol>
    <symbol viewBox="0 0 24 24" id="mdi_eye_24px">
        <!-- https://materialdesignicons.com/icon/eye -->
        <path d="M12,9A3,3 0 0,0 9,12A3,3 0 0,0 12,15A3,3 0 0,0 15,12A3,3 0 0,0 12,9M12,17A5,5 0 0,1 7,12A5,5 0 0,1 12,7A5,5 0 0,1 17,12A5,5 0 0,1 12,17M12,4.5C7,4.5 2.73,7.61 1,12C2.73,16.39 7,19.5 12,19.5C17,19.5 21.27,16.39 23,12C21.27,7.61 17,4.5 12,4.5Z" />
    </symbol>
    <symbol viewBox="0 0 24 24" id="mdi_github_circle_24px">
        <!-- https://materialdesignicons.com/icon/github-circle -->
        <path d="M12,2A10,10 0 0,0 2,12C2,16.42 4.87,20.17 8.84,21.5C9.34,21.58 9.5,21.27 9.5,21C9.5,20.77 9.5,20.14 9.5,19.31C6.73,19.91 6.14,17.97 6.14,17.97C5.68,16.81 5.03,16.5 5.03,16.5C4.12,15.88 5.1,15.9 5.1,15.9C6.1,15.97 6.63,16.93 6.63,16.93C7.5,18.45 8.97,18 9.54,17.76C9.63,17.11 9.89,16.67 10.17,16.42C7.95,16.17 5.62,15.31 5.62,11.5C5.62,10.39 6,9.5 6.65,8.79C6.55,8.54 6.2,7.5 6.75,6.15C6.75,6.15 7.59,5.88 9.5,7.17C10.29,6.95 11.15,6.84 12,6.84C12.85,6.84 13.71,6.95 14.5,7.17C16.41,5.88 17.25,6.15 17.25,6.15C17.8,7.5 17.45,8.54 17.35,8.79C18,9.5 18.38,10.39 18.38,11.5C18.38,15.32 16.04,16.16 13.81,16.41C14.17,16.72 14.5,17.33 14.5,18.26C14.5,19.6 14.5,20.68 14.5,21C14.5,21.27 14.66,21.59 15.17,21.5C19.14,20.16 22,16.42 22,12A10,10 0 0,0 12,2Z" />
    </symbol>
    <symbol viewBox="0 0 24 24" id="mdi_code_tags_24px">
        <!-- https://materialdesignicons.com/icon/code-tags -->
        <path d="M14.6,16.6L19.2,12L14.6,7.4L16,6L22,12L16,18L14.6,16.6M9.4,16.6L4.8,12L9.4,7.4L8,6L2,12L8,18L9.4,16.6Z" />
    </symbol>
    <symbol viewBox="0 0 24 24" id="mdi_json_24px">
        <!-- https://materialdesignicons.com/icon/json -->
        <path d="M5,3H7V5H5V10A2,2 0 0,1 3,12A2,2 0 0,1 5,14V19H7V21H5C3.93,20.73 3,20.1 3,19V15A2,2 0 0,0 1,13H0V11H1A2,2 0 0,0 3,9V5A2,2 0 0,1 5,3M19,3A2,2 0 0,1 21,5V9A2,2 0 0,0 23,11H24V13H23A2,2 0 0,0 21,15V19A2,2 0 0,1 19,21H17V19H19V14A2,2 0 0,1 21,12A2,2 0 0,1 19,10V5H17V3H19M12,15A1,1 0 0,1 13,16A1,1 0 0,1 12,17A1,1 0 0,1 11,16A1,1 0 0,1 12,15M8,15A1,1 0 0,1 9,16A1,1 0 0,1 8,17A1,1 0 0,1 7,16A1,1 0 0,1 8,15M16,15A1,1 0 0,1 17,16A1,1 0 0,1 16,17A1,1 0 0,1 15,16A1,1 0 0,1 16,15Z" />
    </symbol>
    <symbol viewBox="0 0 24 24" id="mdi_library_24px">
        <!-- https://materialdesignicons.com/icon/library -->
        <path d="M12,8A3,3 0 0,0 15,5A3,3 0 0,0 12,2A3,3 0 0,0 9,5A3,3 0 0,0 12,8M12,11.54C9.64,9.35 6.5,8 3,8V19C6.5,19 9.64,20.35 12,22.54C14.36,20.35 17.5,19 21,19V8C17.5,8 14.36,9.35 12,11.54Z" />
    </symbol>
    <symbol viewBox="0 0 24 24" id="mdi_linkedin_24px">
        <!-- https://materialdesignicons.com/icon/linkedin -->
        <path d="M21,21H17V14.25C17,13.19 15.81,12.31 14.75,12.31C13.69,12.31 13,13.19 13,14.25V21H9V9H13V11C13.66,9.93 15.36,9.24 16.5,9.24C19,9.24 21,11.28 21,13.75V21M7,21H3V9H7V21M5,3A2,2 0 0,1 7,5A2,2 0 0,1 5,7A2,2 0 0,1 3,5A2,2 0 0,1 5,3Z" />
    </symbol>
    <symbol viewBox="0 0 24 24" id="mdi_microsoft_24px">
        <!-- https://materialdesignicons.com/icon/microsoft -->
        <path d="M2,3H11V12H2V3M11,22H2V13H11V22M21,3V12H12V3H21M21,22H12V13H21V22Z" />
    </symbol>
    <symbol viewBox="0 0 24 24" id="mdi_office_24px">
        <!-- https://materialdesignicons.com/icon/office -->
        <path d="M3,18L7,16.75V7L14,5V19.5L3.5,18.25L14,22L20,20.75V3.5L13.95,2L3,5.75V18Z" />
    </symbol>
    <symbol viewBox="0 0 24 24" id="mdi_pencil_24px">
        <!-- https://materialdesignicons.com/icon/pencil -->
        <path d="M20.71,7.04C21.1,6.65 21.1,6 20.71,5.63L18.37,3.29C18,2.9 17.35,2.9 16.96,3.29L15.12,5.12L18.87,8.87M3,17.25V21H6.75L17.81,9.93L14.06,6.18L3,17.25Z" />
    </symbol>
    <symbol viewBox="0 0 24 24" id="mdi_regex_24px">
        <!-- https://materialdesignicons.com/icon/regex -->
        <path d="M16,16.92C15.67,16.97 15.34,17 15,17C14.66,17 14.33,16.97 14,16.92V13.41L11.5,15.89C11,15.5 10.5,15 10.11,14.5L12.59,12H9.08C9.03,11.67 9,11.34 9,11C9,10.66 9.03,10.33 9.08,10H12.59L10.11,7.5C10.3,7.25 10.5,7 10.76,6.76V6.76C11,6.5 11.25,6.3 11.5,6.11L14,8.59V5.08C14.33,5.03 14.66,5 15,5C15.34,5 15.67,5.03 16,5.08V8.59L18.5,6.11C19,6.5 19.5,7 19.89,7.5L17.41,10H20.92C20.97,10.33 21,10.66 21,11C21,11.34 20.97,11.67 20.92,12H17.41L19.89,14.5C19.7,14.75 19.5,15 19.24,15.24V15.24C19,15.5 18.75,15.7 18.5,15.89L16,13.41V16.92H16V16.92M5,19A2,2 0 0,1 7,17A2,2 0 0,1 9,19A2,2 0 0,1 7,21A2,2 0 0,1 5,19H5Z" />
    </symbol>
    <symbol viewBox="0 0 24 24" id="mdi_rss_24px">
        <!-- https://materialdesignicons.com/icon/rss -->
        <path d="M6.18,15.64A2.18,2.18 0 0,1 8.36,17.82C8.36,19 7.38,20 6.18,20C5,20 4,19 4,17.82A2.18,2.18 0 0,1 6.18,15.64M4,4.44A15.56,15.56 0 0,1 19.56,20H16.73A12.73,12.73 0 0,0 4,7.27V4.44M4,10.1A9.9,9.9 0 0,1 13.9,20H11.07A7.07,7.07 0 0,0 4,12.93V10.1Z" />
    </symbol>
    <symbol viewBox="0 0 24 24" id="mdi_stack_overflow_24px">
        <!-- https://materialdesignicons.com/icon/stack-overflow -->
        <path d="M17.36,20.2V14.82H19.15V22H3V14.82H4.8V20.2H17.36M6.77,14.32L7.14,12.56L15.93,14.41L15.56,16.17L6.77,14.32M7.93,10.11L8.69,8.5L16.83,12.28L16.07,13.9L7.93,10.11M10.19,6.12L11.34,4.74L18.24,10.5L17.09,11.87L10.19,6.12M14.64,1.87L20,9.08L18.56,10.15L13.2,2.94L14.64,1.87M6.59,18.41V16.61H15.57V18.41H6.59Z" />
    </symbol>
    <symbol viewBox="0 0 24 24" id="mdi_step_backward_24px">
        <!-- https://materialdesignicons.com/icon/step-backward -->
        <path d="M19,5V19H16V5M14,5V19L3,12" />
    </symbol>
    <symbol viewBox="0 0 24 24" id="mdi_step_forward_24px">
        <!-- https://materialdesignicons.com/icon/step-forward -->
        <path d="M5,5V19H8V5M10,5V19L21,12" />
    </symbol>
    <symbol viewBox="0 0 24 24" id="mdi_twitter_24px">
        <!-- https://materialdesignicons.com/icon/twitter -->
        <path d="M22.46,6C21.69,6.35 20.86,6.58 20,6.69C20.88,6.16 21.56,5.32 21.88,4.31C21.05,4.81 20.13,5.16 19.16,5.36C18.37,4.5 17.26,4 16,4C13.65,4 11.73,5.92 11.73,8.29C11.73,8.63 11.77,8.96 11.84,9.27C8.28,9.09 5.11,7.38 3,4.79C2.63,5.42 2.42,6.16 2.42,6.94C2.42,8.43 3.17,9.75 4.33,10.5C3.62,10.5 2.96,10.3 2.38,10C2.38,10 2.38,10 2.38,10.03C2.38,12.11 3.86,13.85 5.82,14.24C5.46,14.34 5.08,14.39 4.69,14.39C4.42,14.39 4.15,14.36 3.89,14.31C4.43,16 6,17.26 7.89,17.29C6.43,18.45 4.58,19.13 2.56,19.13C2.22,19.13 1.88,19.11 1.54,19.07C3.44,20.29 5.7,21 8.12,21C16,21 20.33,14.46 20.33,8.79C20.33,8.6 20.33,8.42 20.32,8.23C21.16,7.63 21.88,6.87 22.46,6Z" />
    </symbol>
    <symbol viewBox="0 0 24 24" id="mdi_vector_curve_24px">
        <!-- https://materialdesignicons.com/icon/visual-studio -->
        <path d="M18.5,2A1.5,1.5 0 0,1 20,3.5A1.5,1.5 0 0,1 18.5,5C18.27,5 18.05,4.95 17.85,4.85L14.16,8.55L14.5,9C16.69,7.74 19.26,7 22,7L23,7.03V9.04L22,9C19.42,9 17,9.75 15,11.04A3.96,3.96 0 0,1 11.04,15C9.75,17 9,19.42 9,22L9.04,23H7.03L7,22C7,19.26 7.74,16.69 9,14.5L8.55,14.16L4.85,17.85C4.95,18.05 5,18.27 5,18.5A1.5,1.5 0 0,1 3.5,20A1.5,1.5 0 0,1 2,18.5A1.5,1.5 0 0,1 3.5,17C3.73,17 3.95,17.05 4.15,17.15L7.84,13.45C7.31,12.78 7,11.92 7,11A4,4 0 0,1 11,7C11.92,7 12.78,7.31 13.45,7.84L17.15,4.15C17.05,3.95 17,3.73 17,3.5A1.5,1.5 0 0,1 18.5,2M11,9A2,2 0 0,0 9,11A2,2 0 0,0 11,13A2,2 0 0,0 13,11A2,2 0 0,0 11,9Z" />
    </symbol>
    <symbol viewBox="0 0 24 24" id="mdi_visual_studio_24px">
        <!-- https://materialdesignicons.com/icon/visual-studio -->
        <path d="M17,8.5L12.25,12.32L17,16V8.5M4.7,18.4L2,16.7V7.7L5,6.7L9.3,10.03L18,2L22,4.5V20L17,22L9.34,14.66L4.7,18.4M5,14L6.86,12.28L5,10.5V14Z" />
    </symbol>
    <symbol viewBox="0 0 24 24" id="mdi_wrench_24px">
        <!-- https://materialdesignicons.com/icon/wrench -->
        <path d="M22.7,19L13.6,9.9C14.5,7.6 14,4.9 12.1,3C10.1,1 7.1,0.6 4.7,1.7L9,6L6,9L1.6,4.7C0.4,7.1 0.9,10.1 2.9,12.1C4.8,14 7.5,14.5 9.8,13.6L18.9,22.7C19.3,23.1 19.9,23.1 20.3,22.7L22.6,20.4C23.1,20 23.1,19.3 22.7,19Z" />
    </symbol>
    <symbol viewBox="0 0 24 24" id="mdi_youtube_24px">
        <!-- https://materialdesignicons.com/icon/youtube -->
        <path d="M10,15L15.19,12L10,9V15M21.56,7.17C21.69,7.64 21.78,8.27 21.84,9.07C21.91,9.87 21.94,10.56 21.94,11.16L22,12C22,14.19 21.84,15.8 21.56,16.83C21.31,17.73 20.73,18.31 19.83,18.56C19.36,18.69 18.5,18.78 17.18,18.84C15.88,18.91 14.69,18.94 13.59,18.94L12,19C7.81,19 5.2,18.84 4.17,18.56C3.27,18.31 2.69,17.73 2.44,16.83C2.31,16.36 2.22,15.73 2.16,14.93C2.09,14.13 2.06,13.44 2.06,12.84L2,12C2,9.81 2.16,8.2 2.44,7.17C2.69,6.27 3.27,5.69 4.17,5.44C4.64,5.31 5.5,5.22 6.82,5.16C8.12,5.09 9.31,5.06 10.41,5.06L12,5C16.19,5 18.8,5.16 19.83,5.44C20.73,5.69 21.31,6.27 21.56,7.17Z" />
    </symbol>
</svg>