<?xml version="1.0" encoding="utf-8"?>
<svg 
    xmlns="http://www.w3.org/2000/svg" 
    xmlns:xlink="http://www.w3.org/1999/xlink">
    <symbol viewBox="0 0 24 24" id="ic_report_problem_24px">
        <path d="M0 0h24v24H0z" fill="none"/>
        <path d="M1 21h22L12 2 1 21zm12-3h-2v-2h2v2zm0-4h-2v-4h2v4z"/>
    </symbol>
    <symbol viewBox="0 0 24 24" id="ic_toc_24px">
        <path d="M3 9h14V7H3v2zm0 4h14v-2H3v2zm0 4h14v-2H3v2zm16 0h2v-2h-2v2zm0-10v2h2V7h-2zm0 6h2v-2h-2v2z" />
    </symbol>
    <symbol viewBox="0 0 24 24" id="mdi_angular_24px">
        <!-- https://materialdesignicons.com/icon/angular -->
        <path d="M12,2.5L20.84,5.65L19.5,17.35L12,21.5L4.5,17.35L3.16,5.65L12,2.5M12,4.6L6.47,17H8.53L9.64,14.22H14.34L15.45,17H17.5L12,4.6M13.62,12.5H10.39L12,8.63L13.62,12.5Z" />
    </symbol>
    <symbol viewBox="0 0 24 24" id="mdi_azure_24px">
        <!-- https://materialdesignicons.com/icon/azure -->
        <path d="M13.05,4.24L6.56,18.05L2,18L7.09,9.24L13.05,4.24M13.75,5.33L22,19.76H6.74L16.04,18.1L11.17,12.31L13.75,5.33Z" />
    </symbol>
    <symbol viewBox="0 0 24 24" id="mdi_cellphone_text_24px">
        <!-- https://materialdesignicons.com/icon/cellphone-text -->
        <path d="M17,19V5H7V19H17M17,1A2,2 0 0,1 19,3V21A2,2 0 0,1 17,23H7C5.89,23 5,22.1 5,21V3C5,1.89 5.89,1 7,1H17M9,7H15V9H9V7M9,11H13V13H9V11Z" />
    </symbol>
    <symbol viewBox="0 0 24 24" id="mdi_cloud_24px">
        <!-- https://materialdesignicons.com/icon/cloud -->
        <path d="M19.35,10.03C18.67,6.59 15.64,4 12,4C9.11,4 6.6,5.64 5.35,8.03C2.34,8.36 0,10.9 0,14A6,6 0 0,0 6,20H19A5,5 0 0,0 24,15C24,12.36 21.95,10.22 19.35,10.03Z" />
    </symbol>
    <symbol viewBox="0 0 24 24" id="mdi_cloud_download_24px">
        <!-- https://materialdesignicons.com/icon/cloud-download -->
        <path d="M17,13L12,18L7,13H10V9H14V13M19.35,10.03C18.67,6.59 15.64,4 12,4C9.11,4 6.6,5.64 5.35,8.03C2.34,8.36 0,10.9 0,14A6,6 0 0,0 6,20H19A5,5 0 0,0 24,15C24,12.36 21.95,10.22 19.35,10.03Z" />
    </symbol>
    <symbol viewBox="0 0 24 24" id="mdi_codepen_24px">
        <!-- https://materialdesignicons.com/icon/codepen -->
        <path d="M15.09,12L12,14.08V14.09L8.91,12L12,9.92V9.92L15.09,12M12,2C11.84,2 11.68,2.06 11.53,2.15L2.5,8.11C2.27,8.22 2.09,8.43 2,8.67V14.92C2,15.33 2,15.33 2.15,15.53L11.53,21.86C11.67,21.96 11.84,22 12,22C12.16,22 12.33,21.95 12.47,21.85L21.85,15.5C22,15.33 22,15.33 22,14.92V8.67C21.91,8.42 21.73,8.22 21.5,8.1L12.47,2.15C12.32,2.05 12.16,2 12,2M16.58,13L19.59,15.04L12.83,19.6V15.53L16.58,13M19.69,8.9L16.58,11L12.83,8.47V4.38L19.69,8.9M20.33,10.47V13.53L18.07,12L20.33,10.47M7.42,13L11.17,15.54V19.6L4.41,15.04L7.42,13M4.31,8.9L11.17,4.39V8.5L7.42,11L4.31,8.9M3.67,10.5L5.93,12L3.67,13.54V10.5Z" />
    </symbol>
    <symbol viewBox="0 0 24 24" id="mdi_eye_24px">
        <!-- https://materialdesignicons.com/icon/eye -->
        <path d="M12,9A3,3 0 0,0 9,12A3,3 0 0,0 12,15A3,3 0 0,0 15,12A3,3 0 0,0 12,9M12,17A5,5 0 0,1 7,12A5,5 0 0,1 12,7A5,5 0 0,1 17,12A5,5 0 0,1 12,17M12,4.5C7,4.5 2.73,7.61 1,12C2.73,16.39 7,19.5 12,19.5C17,19.5 21.27,16.39 23,12C21.27,7.61 17,4.5 12,4.5Z" />
    </symbol>
    <symbol viewBox="0 0 24 24" id="mdi_github_circle_24px">
        <!-- https://materialdesignicons.com/icon/github-circle -->
        <path d="M12,2A10,10 0 0,0 2,12C2,16.42 4.87,20.17 8.84,21.5C9.34,21.58 9.5,21.27 9.5,21C9.5,20.77 9.5,20.14 9.5,19.31C6.73,19.91 6.14,17.97 6.14,17.97C5.68,16.81 5.03,16.5 5.03,16.5C4.12,15.88 5.1,15.9 5.1,15.9C6.1,15.97 6.63,16.93 6.63,16.93C7.5,18.45 8.97,18 9.54,17.76C9.63,17.11 9.89,16.67 10.17,16.42C7.95,16.17 5.62,15.31 5.62,11.5C5.62,10.39 6,9.5 6.65,8.79C6.55,8.54 6.2,7.5 6.75,6.15C6.75,6.15 7.59,5.88 9.5,7.17C10.29,6.95 11.15,6.84 12,6.84C12.85,6.84 13.71,6.95 14.5,7.17C16.41,5.88 17.25,6.15 17.25,6.15C17.8,7.5 17.45,8.54 17.35,8.79C18,9.5 18.38,10.39 18.38,11.5C18.38,15.32 16.04,16.16 13.81,16.41C14.17,16.72 14.5,17.33 14.5,18.26C14.5,19.6 14.5,20.68 14.5,21C14.5,21.27 14.66,21.59 15.17,21.5C19.14,20.16 22,16.42 22,12A10,10 0 0,0 12,2Z" />
    </symbol>
    <symbol viewBox="0 0 24 24" id="mdi_linkedin_24px">
        <!-- https://materialdesignicons.com/icon/linkedin -->
        <path d="M21,21H17V14.25C17,13.19 15.81,12.31 14.75,12.31C13.69,12.31 13,13.19 13,14.25V21H9V9H13V11C13.66,9.93 15.36,9.24 16.5,9.24C19,9.24 21,11.28 21,13.75V21M7,21H3V9H7V21M5,3A2,2 0 0,1 7,5A2,2 0 0,1 5,7A2,2 0 0,1 3,5A2,2 0 0,1 5,3Z" />
    </symbol>
    <symbol viewBox="0 0 24 24" id="mdi_microsoft_24px">
        <!-- https://materialdesignicons.com/icon/microsoft -->
        <path d="M2,3H11V12H2V3M11,22H2V13H11V22M21,3V12H12V3H21M21,22H12V13H21V22Z" />
    </symbol>
    <symbol viewBox="0 0 24 24" id="mdi_rss_24px">
        <!-- https://materialdesignicons.com/icon/rss -->
        <path d="M6.18,15.64A2.18,2.18 0 0,1 8.36,17.82C8.36,19 7.38,20 6.18,20C5,20 4,19 4,17.82A2.18,2.18 0 0,1 6.18,15.64M4,4.44A15.56,15.56 0 0,1 19.56,20H16.73A12.73,12.73 0 0,0 4,7.27V4.44M4,10.1A9.9,9.9 0 0,1 13.9,20H11.07A7.07,7.07 0 0,0 4,12.93V10.1Z" />
    </symbol>
    <symbol viewBox="0 0 24 24" id="mdi_stack_overflow_24px">
        <!-- https://materialdesignicons.com/icon/stack-overflow -->
        <path d="M17.36,20.2V14.82H19.15V22H3V14.82H4.8V20.2H17.36M6.77,14.32L7.14,12.56L15.93,14.41L15.56,16.17L6.77,14.32M7.93,10.11L8.69,8.5L16.83,12.28L16.07,13.9L7.93,10.11M10.19,6.12L11.34,4.74L18.24,10.5L17.09,11.87L10.19,6.12M14.64,1.87L20,9.08L18.56,10.15L13.2,2.94L14.64,1.87M6.59,18.41V16.61H15.57V18.41H6.59Z" />
    </symbol>
    <symbol viewBox="0 0 24 24" id="mdi_twitter_24px">
        <!-- https://materialdesignicons.com/icon/twitter -->
        <path d="M22.46,6C21.69,6.35 20.86,6.58 20,6.69C20.88,6.16 21.56,5.32 21.88,4.31C21.05,4.81 20.13,5.16 19.16,5.36C18.37,4.5 17.26,4 16,4C13.65,4 11.73,5.92 11.73,8.29C11.73,8.63 11.77,8.96 11.84,9.27C8.28,9.09 5.11,7.38 3,4.79C2.63,5.42 2.42,6.16 2.42,6.94C2.42,8.43 3.17,9.75 4.33,10.5C3.62,10.5 2.96,10.3 2.38,10C2.38,10 2.38,10 2.38,10.03C2.38,12.11 3.86,13.85 5.82,14.24C5.46,14.34 5.08,14.39 4.69,14.39C4.42,14.39 4.15,14.36 3.89,14.31C4.43,16 6,17.26 7.89,17.29C6.43,18.45 4.58,19.13 2.56,19.13C2.22,19.13 1.88,19.11 1.54,19.07C3.44,20.29 5.7,21 8.12,21C16,21 20.33,14.46 20.33,8.79C20.33,8.6 20.33,8.42 20.32,8.23C21.16,7.63 21.88,6.87 22.46,6Z" />
    </symbol>
    <symbol viewBox="0 0 24 24" id="mdi_visual_studio_24px">
        <!-- https://materialdesignicons.com/icon/visual-studio -->
        <path d="M17,8.5L12.25,12.32L17,16V8.5M4.7,18.4L2,16.7V7.7L5,6.7L9.3,10.03L18,2L22,4.5V20L17,22L9.34,14.66L4.7,18.4M5,14L6.86,12.28L5,10.5V14Z" />
    </symbol>
</svg>